<svg width="65" height="36" viewBox="0 0 65 36" fill="none" xmlns="http://www.w3.org/2000/svg">
<path d="M45.4962 0.773099L30.5789 15.8901L19.0095 27.6144C17.5214 29.1223 16.0335 27.6144 16.0335 27.6144L7.84937 19.3207C7.84937 19.3207 6.36132 17.8128 7.84937 16.3048L16.0335 8.01116C17.5214 6.50323 19.0095 8.01116 19.0095 8.01116L21.5763 10.6124C22.6179 11.6679 24.2919 11.6679 25.2964 10.6124C26.338 9.55675 26.338 7.86036 25.2964 6.84249L19.3443 0.810756C19.0839 0.546896 18.7863 0.358352 18.4887 0.245294C18.4143 0.20755 18.3399 0.169892 18.2655 0.169892C18.005 0.0944915 17.7818 0.0567496 17.5214 0.0567496C16.8519 0.0567496 16.1823 0.320695 15.6614 0.848416L0.781217 15.8901C-0.260406 16.9457 -0.260406 18.6421 0.781217 19.66L15.6987 34.777C16.7403 35.8326 18.4143 35.8326 19.4187 34.777L34.3361 19.66L45.9055 7.93576C47.3934 6.42782 48.8815 7.93576 48.8815 7.93576L57.0658 16.2294C57.0658 16.2294 58.5535 17.7374 57.0658 19.2453L48.8815 27.539C47.3935 29.0469 45.9055 27.539 45.9055 27.539L43.2642 24.8624C42.2226 23.8067 40.5486 23.8067 39.5441 24.8624C38.5025 25.9179 38.5025 27.6144 39.5441 28.6322L45.5335 34.7016C46.575 35.7571 48.2491 35.7571 49.2535 34.7016L64.1705 19.5846C65.2124 18.529 65.2124 16.8326 64.1705 15.8147L49.2535 0.697698C48.2119 -0.24477 46.5378 -0.24477 45.4962 0.773099Z" fill="#006ADA"/>
</svg>
