<svg width="487" height="420" viewBox="0 0 487 420" fill="none" xmlns="http://www.w3.org/2000/svg">
<circle cx="231.644" cy="10.8139" r="7.5" transform="rotate(30 231.644 10.8139)" fill="#0073DA" fill-opacity="0.7"/>
<circle cx="270.616" cy="33.3139" r="7.5" transform="rotate(30 270.616 33.3139)" fill="#0073DA" fill-opacity="0.7"/>
<circle cx="309.587" cy="55.8139" r="7.5" transform="rotate(30 309.587 55.8139)" fill="#0073DA" fill-opacity="0.7"/>
<circle cx="348.558" cy="78.3139" r="7.5" transform="rotate(30 348.558 78.3139)" fill="#0073DA" fill-opacity="0.7"/>
<circle cx="387.529" cy="100.814" r="7.5" transform="rotate(30 387.529 100.814)" fill="#0073DA" fill-opacity="0.7"/>
<circle cx="426.5" cy="123.314" r="7.5" transform="rotate(30 426.5 123.314)" fill="#0073DA" fill-opacity="0.7"/>
<circle cx="465.471" cy="145.814" r="7.5" transform="rotate(30 465.471 145.814)" fill="#0073DA" fill-opacity="0.7"/>
<circle cx="207.144" cy="53.2492" r="7.5" transform="rotate(30 207.144 53.2492)" fill="#0073DA" fill-opacity="0.7"/>
<circle cx="246.116" cy="75.7492" r="7.5" transform="rotate(30 246.116 75.7492)" fill="#0073DA" fill-opacity="0.7"/>
<circle cx="285.087" cy="98.2492" r="7.5" transform="rotate(30 285.087 98.2492)" fill="#0073DA" fill-opacity="0.7"/>
<circle cx="324.058" cy="120.749" r="7.5" transform="rotate(30 324.058 120.749)" fill="#0073DA" fill-opacity="0.7"/>
<circle cx="363.029" cy="143.249" r="7.5" transform="rotate(30 363.029 143.249)" fill="#0073DA" fill-opacity="0.7"/>
<circle cx="402" cy="165.749" r="7.5" transform="rotate(30 402 165.749)" fill="#0073DA" fill-opacity="0.7"/>
<circle cx="440.971" cy="188.249" r="7.5" transform="rotate(30 440.971 188.249)" fill="#0073DA" fill-opacity="0.7"/>
<circle cx="479.942" cy="210.749" r="7.5" transform="rotate(30 479.942 210.749)" fill="#0073DA" fill-opacity="0.7"/>
<circle cx="182.644" cy="95.6844" r="7.5" transform="rotate(30 182.644 95.6844)" fill="#0073DA" fill-opacity="0.7"/>
<circle cx="221.616" cy="118.184" r="7.5" transform="rotate(30 221.616 118.184)" fill="#0073DA" fill-opacity="0.7"/>
<circle cx="260.587" cy="140.684" r="7.5" transform="rotate(30 260.587 140.684)" fill="#0073DA" fill-opacity="0.7"/>
<circle cx="299.558" cy="163.184" r="7.5" transform="rotate(30 299.558 163.184)" fill="#0073DA" fill-opacity="0.7"/>
<circle cx="338.529" cy="185.684" r="7.5" transform="rotate(30 338.529 185.684)" fill="#0073DA" fill-opacity="0.7"/>
<circle cx="377.5" cy="208.184" r="7.5" transform="rotate(30 377.5 208.184)" fill="#0073DA" fill-opacity="0.7"/>
<circle cx="416.471" cy="230.684" r="7.5" transform="rotate(30 416.471 230.684)" fill="#0073DA" fill-opacity="0.7"/>
<circle cx="455.442" cy="253.184" r="7.5" transform="rotate(30 455.442 253.184)" fill="#0073DA" fill-opacity="0.7"/>
<circle cx="494.413" cy="275.684" r="7.5" transform="rotate(30 494.413 275.684)" fill="#0073DA" fill-opacity="0.7"/>
<circle cx="158.144" cy="138.12" r="7.5" transform="rotate(30 158.144 138.12)" fill="#0073DA" fill-opacity="0.7"/>
<circle cx="197.116" cy="160.62" r="7.5" transform="rotate(30 197.116 160.62)" fill="#0073DA" fill-opacity="0.7"/>
<circle cx="236.087" cy="183.12" r="7.5" transform="rotate(30 236.087 183.12)" fill="#0073DA" fill-opacity="0.7"/>
<circle cx="275.058" cy="205.62" r="7.5" transform="rotate(30 275.058 205.62)" fill="#0073DA" fill-opacity="0.7"/>
<circle cx="314.029" cy="228.12" r="7.5" transform="rotate(30 314.029 228.12)" fill="#0073DA" fill-opacity="0.7"/>
<circle cx="353" cy="250.62" r="7.5" transform="rotate(30 353 250.62)" fill="#0073DA" fill-opacity="0.7"/>
<circle cx="391.971" cy="273.12" r="7.5" transform="rotate(30 391.971 273.12)" fill="#0073DA" fill-opacity="0.7"/>
<circle cx="430.942" cy="295.62" r="7.5" transform="rotate(30 430.942 295.62)" fill="#0073DA" fill-opacity="0.7"/>
<circle cx="469.913" cy="318.12" r="7.5" transform="rotate(30 469.913 318.12)" fill="#0073DA" fill-opacity="0.7"/>
<circle cx="133.644" cy="180.555" r="7.5" transform="rotate(30 133.644 180.555)" fill="#0073DA" fill-opacity="0.7"/>
<circle cx="172.616" cy="203.055" r="7.5" transform="rotate(30 172.616 203.055)" fill="#0073DA" fill-opacity="0.7"/>
<circle cx="211.587" cy="225.555" r="7.5" transform="rotate(30 211.587 225.555)" fill="#0073DA" fill-opacity="0.7"/>
<circle cx="250.558" cy="248.055" r="7.5" transform="rotate(30 250.558 248.055)" fill="#0073DA" fill-opacity="0.7"/>
<circle cx="289.529" cy="270.555" r="7.5" transform="rotate(30 289.529 270.555)" fill="#0073DA" fill-opacity="0.7"/>
<circle cx="328.5" cy="293.055" r="7.5" transform="rotate(30 328.5 293.055)" fill="#0073DA" fill-opacity="0.7"/>
<circle cx="367.471" cy="315.555" r="7.5" transform="rotate(30 367.471 315.555)" fill="#0073DA" fill-opacity="0.7"/>
<circle cx="406.442" cy="338.055" r="7.5" transform="rotate(30 406.442 338.055)" fill="#0073DA" fill-opacity="0.7"/>
<circle cx="445.413" cy="360.555" r="7.5" transform="rotate(30 445.413 360.555)" fill="#0073DA" fill-opacity="0.7"/>
<circle cx="484.385" cy="383.055" r="7.5" transform="rotate(30 484.385 383.055)" fill="#0073DA" fill-opacity="0.7"/>
<circle cx="109.144" cy="222.99" r="7.5" transform="rotate(30 109.144 222.99)" fill="#0073DA" fill-opacity="0.7"/>
<circle cx="148.116" cy="245.49" r="7.5" transform="rotate(30 148.116 245.49)" fill="#0073DA" fill-opacity="0.7"/>
<circle cx="187.087" cy="267.99" r="7.5" transform="rotate(30 187.087 267.99)" fill="#0073DA" fill-opacity="0.7"/>
<circle cx="226.058" cy="290.49" r="7.5" transform="rotate(30 226.058 290.49)" fill="#0073DA" fill-opacity="0.7"/>
<circle cx="265.029" cy="312.99" r="7.5" transform="rotate(30 265.029 312.99)" fill="#0073DA" fill-opacity="0.7"/>
<circle cx="304" cy="335.49" r="7.5" transform="rotate(30 304 335.49)" fill="#0073DA" fill-opacity="0.7"/>
<circle cx="342.971" cy="357.99" r="7.5" transform="rotate(30 342.971 357.99)" fill="#0073DA" fill-opacity="0.7"/>
<circle cx="381.942" cy="380.49" r="7.5" transform="rotate(30 381.942 380.49)" fill="#0073DA" fill-opacity="0.7"/>
<circle cx="420.913" cy="402.99" r="7.5" transform="rotate(30 420.913 402.99)" fill="#0073DA" fill-opacity="0.7"/>
<circle cx="459.885" cy="425.49" r="7.5" transform="rotate(30 459.885 425.49)" fill="#0073DA" fill-opacity="0.7"/>
<circle cx="84.6444" cy="265.425" r="7.5" transform="rotate(30 84.6444 265.425)" fill="#0073DA" fill-opacity="0.7"/>
<circle cx="123.616" cy="287.925" r="7.5" transform="rotate(30 123.616 287.925)" fill="#0073DA" fill-opacity="0.7"/>
<circle cx="162.587" cy="310.425" r="7.5" transform="rotate(30 162.587 310.425)" fill="#0073DA" fill-opacity="0.7"/>
<circle cx="201.558" cy="332.925" r="7.5" transform="rotate(30 201.558 332.925)" fill="#0073DA" fill-opacity="0.7"/>
<circle cx="240.529" cy="355.425" r="7.5" transform="rotate(30 240.529 355.425)" fill="#0073DA" fill-opacity="0.7"/>
<circle cx="279.5" cy="377.925" r="7.5" transform="rotate(30 279.5 377.925)" fill="#0073DA" fill-opacity="0.7"/>
<circle cx="318.471" cy="400.425" r="7.5" transform="rotate(30 318.471 400.425)" fill="#0073DA" fill-opacity="0.7"/>
<circle cx="357.442" cy="422.925" r="7.5" transform="rotate(30 357.442 422.925)" fill="#0073DA" fill-opacity="0.7"/>
<circle cx="60.1444" cy="307.861" r="7.5" transform="rotate(30 60.1444 307.861)" fill="#0073DA" fill-opacity="0.7"/>
<circle cx="99.1156" cy="330.361" r="7.5" transform="rotate(30 99.1156 330.361)" fill="#0073DA" fill-opacity="0.7"/>
<circle cx="138.087" cy="352.861" r="7.5" transform="rotate(30 138.087 352.861)" fill="#0073DA" fill-opacity="0.7"/>
<circle cx="177.058" cy="375.361" r="7.5" transform="rotate(30 177.058 375.361)" fill="#0073DA" fill-opacity="0.7"/>
<circle cx="216.029" cy="397.861" r="7.5" transform="rotate(30 216.029 397.861)" fill="#0073DA" fill-opacity="0.7"/>
<circle cx="255" cy="420.361" r="7.5" transform="rotate(30 255 420.361)" fill="#0073DA" fill-opacity="0.7"/>
<circle cx="35.6444" cy="350.296" r="7.5" transform="rotate(30 35.6444 350.296)" fill="#0073DA" fill-opacity="0.7"/>
<circle cx="74.6156" cy="372.796" r="7.5" transform="rotate(30 74.6156 372.796)" fill="#0073DA" fill-opacity="0.7"/>
<circle cx="113.587" cy="395.296" r="7.5" transform="rotate(30 113.587 395.296)" fill="#0073DA" fill-opacity="0.7"/>
<circle cx="152.558" cy="417.796" r="7.5" transform="rotate(30 152.558 417.796)" fill="#0073DA" fill-opacity="0.7"/>
<circle cx="11.1444" cy="392.731" r="7.5" transform="rotate(30 11.1444 392.731)" fill="#0073DA" fill-opacity="0.7"/>
<circle cx="50.1156" cy="415.231" r="7.5" transform="rotate(30 50.1156 415.231)" fill="#0073DA" fill-opacity="0.7"/>
</svg>
