<svg width="797" height="672" viewBox="0 0 797 672" fill="none" xmlns="http://www.w3.org/2000/svg">
<g clip-path="url(#clip0_1135_1272)">
<path d="M406.765 672C592.282 672 742.673 521.568 742.673 336C742.673 150.432 592.282 0 406.765 0C221.249 0 70.8579 150.432 70.8579 336C70.8579 521.568 221.249 672 406.765 672Z" fill="#9CC5F1"/>
<path d="M593.187 189.516H387.21V508.564H593.187V189.516Z" fill="white"/>
<path d="M345.928 384.248H557.12" stroke="black" stroke-miterlimit="10"/>
<path d="M345.928 405.113H557.12" stroke="black" stroke-miterlimit="10"/>
<path d="M345.928 425.977H557.12" stroke="black" stroke-miterlimit="10"/>
<path d="M345.928 446.841H557.12" stroke="black" stroke-miterlimit="10"/>
<path d="M490.199 336.435C519.958 336.435 544.083 312.303 544.083 282.536C544.083 252.768 519.958 228.636 490.199 228.636C460.44 228.636 436.315 252.768 436.315 282.536C436.315 312.303 460.44 336.435 490.199 336.435Z" fill="#F2F2F2"/>
<path d="M491.068 32.6003H31.3137V335.131H491.068V32.6003Z" stroke="black" stroke-miterlimit="10"/>
<path d="M31.3137 48.6831H491.068" stroke="black" stroke-miterlimit="10"/>
<path d="M202.961 75.6326H64.7742V213.858H202.961V75.6326Z" stroke="black" stroke-miterlimit="10"/>
<path d="M229.469 87.8034H440.66" stroke="black" stroke-miterlimit="10"/>
<path d="M229.469 108.668H440.66" stroke="black" stroke-miterlimit="10"/>
<path d="M229.469 129.532H440.66" stroke="black" stroke-miterlimit="10"/>
<path d="M229.469 150.396H440.66" stroke="black" stroke-miterlimit="10"/>
<path opacity="0.44" d="M133.868 112.145L96.2356 177.345H171.5L133.868 112.145Z" fill="#50B89D"/>
<path d="M41.3084 44.771C43.4684 44.771 45.2194 43.0195 45.2194 40.859C45.2194 38.6984 43.4684 36.947 41.3084 36.947C39.1485 36.947 37.3975 38.6984 37.3975 40.859C37.3975 43.0195 39.1485 44.771 41.3084 44.771Z" fill="#AB8DE5"/>
<path d="M54.7794 44.771C56.9393 44.771 58.6903 43.0195 58.6903 40.859C58.6903 38.6984 56.9393 36.947 54.7794 36.947C52.6194 36.947 50.8684 38.6984 50.8684 40.859C50.8684 43.0195 52.6194 44.771 54.7794 44.771Z" fill="#73E5E2"/>
<path d="M68.2506 44.771C70.4105 44.771 72.1615 43.0195 72.1615 40.859C72.1615 38.6984 70.4105 36.947 68.2506 36.947C66.0906 36.947 64.3396 38.6984 64.3396 40.859C64.3396 43.0195 66.0906 44.771 68.2506 44.771Z" fill="#50B89D"/>
<path d="M233.814 279.276L246.851 267.757H233.553L233.814 279.276Z" fill="#0073DA"/>
<path d="M303.62 224.724H238.751C228.824 224.724 220.778 232.773 220.778 242.702V251.083C220.778 261.012 228.824 269.061 238.751 269.061H303.62C313.546 269.061 321.593 261.012 321.593 251.083V242.702C321.593 232.773 313.546 224.724 303.62 224.724Z" fill="#0073DA"/>
<path d="M257.714 250.805C259.874 250.805 261.625 249.053 261.625 246.893C261.625 244.732 259.874 242.981 257.714 242.981C255.554 242.981 253.803 244.732 253.803 246.893C253.803 249.053 255.554 250.805 257.714 250.805Z" fill="white"/>
<path d="M271.185 250.805C273.345 250.805 275.096 249.053 275.096 246.893C275.096 244.732 273.345 242.981 271.185 242.981C269.025 242.981 267.274 244.732 267.274 246.893C267.274 249.053 269.025 250.805 271.185 250.805Z" fill="white"/>
<path d="M284.657 250.805C286.817 250.805 288.567 249.053 288.567 246.893C288.567 244.732 286.817 242.981 284.657 242.981C282.497 242.981 280.746 244.732 280.746 246.893C280.746 249.053 282.497 250.805 284.657 250.805Z" fill="white"/>
<path d="M646.637 148.875L633.6 137.356H646.898L646.637 148.875Z" fill="#0073DA"/>
<path d="M576.831 138.66H641.7C651.627 138.66 659.673 130.611 659.673 120.682V112.301C659.673 102.372 651.627 94.3235 641.7 94.3235H576.831C566.905 94.3235 558.858 102.372 558.858 112.301V120.682C558.858 130.611 566.905 138.66 576.831 138.66Z" fill="#0073DA"/>
<path d="M622.737 120.404C624.897 120.404 626.648 118.652 626.648 116.492C626.648 114.331 624.897 112.58 622.737 112.58C620.577 112.58 618.826 114.331 618.826 116.492C618.826 118.652 620.577 120.404 622.737 120.404Z" fill="white"/>
<path d="M609.265 120.404C611.425 120.404 613.176 118.652 613.176 116.492C613.176 114.331 611.425 112.58 609.265 112.58C607.105 112.58 605.354 114.331 605.354 116.492C605.354 118.652 607.105 120.404 609.265 120.404Z" fill="white"/>
<path d="M595.795 120.404C597.955 120.404 599.706 118.652 599.706 116.492C599.706 114.331 597.955 112.58 595.795 112.58C593.635 112.58 591.884 114.331 591.884 116.492C591.884 118.652 593.635 120.404 595.795 120.404Z" fill="white"/>
<path d="M639.684 40.859C641.844 40.859 643.595 39.1076 643.595 36.947C643.595 34.7864 641.844 33.035 639.684 33.035C637.524 33.035 635.773 34.7864 635.773 36.947C635.773 39.1076 637.524 40.859 639.684 40.859Z" fill="#0073DA"/>
<path d="M647.94 56.9418C650.1 56.9418 651.851 55.1903 651.851 53.0298C651.851 50.8692 650.1 49.1177 647.94 49.1177C645.781 49.1177 644.03 50.8692 644.03 53.0298C644.03 55.1903 645.781 56.9418 647.94 56.9418Z" fill="#0073DA"/>
<path d="M557.989 217.77C561.348 217.77 564.072 215.045 564.072 211.684C564.072 208.324 561.348 205.599 557.989 205.599C554.629 205.599 551.905 208.324 551.905 211.684C551.905 215.045 554.629 217.77 557.989 217.77Z" fill="#0073DA"/>
<path d="M593.622 238.634C596.982 238.634 599.706 235.909 599.706 232.549C599.706 229.188 596.982 226.463 593.622 226.463C590.262 226.463 587.538 229.188 587.538 232.549C587.538 235.909 590.262 238.634 593.622 238.634Z" fill="#0073DA"/>
<path d="M46.0883 245.589C49.4483 245.589 52.172 242.864 52.172 239.503C52.172 236.142 49.4483 233.418 46.0883 233.418C42.7284 233.418 40.0046 236.142 40.0046 239.503C40.0046 242.864 42.7284 245.589 46.0883 245.589Z" fill="#0073DA"/>
<path d="M572.068 517.475V516.605L569.982 513.997L565.159 508.138L560.031 501.931C560.031 501.931 555.094 498.514 553.826 497.923C549.202 495.785 544.648 494.15 539.207 494.15C535.861 494.15 523.355 494.655 523.329 496.758C523.329 499.879 540.841 511.694 553.687 517.431C559.327 517.475 572.068 517.475 572.068 517.475Z" fill="#1F161E"/>
<path d="M569.417 517.475C551.592 503.757 515.203 428.932 524.537 401.201C544.405 411.328 566.202 446.25 576.483 475.738C577.036 477.655 577.48 479.603 577.813 481.571L581.984 500.697L582.993 517.501L569.417 517.475Z" fill="#FBDC8E"/>
<path d="M581.585 517.475C575.57 512.589 573.65 498.123 573.598 492.725C573.502 482.649 575.049 475.225 583.662 464.141C592.275 453.057 589.98 434.67 601.417 422.265C612.855 409.859 620.433 406.399 634.009 406.399C647.584 406.399 651.895 428.411 651.825 433.949C651.669 456.291 637.598 459.455 629.011 470.113C622.78 477.85 622.293 484.179 620.407 487.795C610.291 507.286 602.069 514.615 595.986 517.475" fill="#73E5E2"/>
<path d="M584.905 515.858C585.078 477.755 625.222 420.526 633.8 411.946" stroke="white" stroke-width="0.4" stroke-linecap="round" stroke-linejoin="round"/>
<path d="M587.069 498.541C582.628 493.698 578.586 479.972 579.195 476.407" stroke="white" stroke-width="0.4" stroke-linecap="round" stroke-linejoin="round"/>
<path d="M575.692 514.189C569.4 503.035 539.546 448.649 528.413 408.59" stroke="white" stroke-width="0.4" stroke-linecap="round" stroke-linejoin="round"/>
<path d="M596.02 517.475H614.723L599.08 575.721H557.25L541.858 517.475H596.02Z" fill="#B37361"/>
<path d="M529.448 497.941C538.564 498.567 550.036 498.984 558.128 504.504" stroke="white" stroke-width="0.4" stroke-linecap="round" stroke-linejoin="round"/>
<path d="M673.962 279.058C671.763 289.551 655.789 419.709 661.012 450.796C666.235 481.884 751.399 547.024 755.127 548.163C759.473 544.972 765.869 534.514 765.869 534.514C765.869 534.514 703.424 462.107 702.234 459.203C701.043 456.299 715.913 288.621 715.913 288.621L673.962 279.058Z" fill="#1F161E"/>
<path d="M775.664 302.748L711.95 562.689H690.492L712.237 291.516L775.664 302.748Z" fill="#0073DA"/>
<path d="M730.41 153.917C739.205 153.917 785.085 155.403 793.376 171.556C801.667 187.708 793.854 262.367 788.7 265.262C785.919 266.818 785.163 265.305 784.355 268.47C783.546 271.634 775.664 302.748 775.664 302.748C770.658 302.887 697.671 291.89 673.979 279.032C674.118 275.459 675.265 266.166 675.265 265.453C672.119 266.74 668.312 267.009 667.269 265.453C658.022 251.448 671.806 178.432 681.697 163.74C685.903 157.438 716.295 153.96 730.41 153.917Z" fill="#FBDC8E"/>
<path d="M760.62 267.279C762.775 267.279 781.33 280.319 779.74 286.726C781.043 281.579 785.146 265.679 785.146 265.679C783.381 266.018 762.201 267.305 760.62 267.279Z" fill="#1F161E"/>
<path d="M741.769 162.436C741.769 165.27 719.424 165.27 719.424 162.436V133.748H741.769V162.436Z" fill="#BD917D"/>
<path d="M728.95 140.538C730.688 140.538 741.769 145.441 741.769 148.17V133.748C739.005 133.748 728.95 140.538 728.95 140.538Z" fill="#1F161E"/>
<path d="M725.89 142.633C737.895 142.633 747.627 132.898 747.627 120.89C747.627 108.883 737.895 99.1483 725.89 99.1483C713.886 99.1483 704.154 108.883 704.154 120.89C704.154 132.898 713.886 142.633 725.89 142.633Z" fill="#BD917D"/>
<path d="M718.538 89.1074C707.379 89.1074 700.426 96.1142 700.426 105.095C700.426 112.562 702.234 116.787 704.363 117.856C705.71 110.606 708.639 107.25 711.064 105.807C712.95 107.25 716.174 110.745 720.485 111.823C724.795 112.901 736.015 112.693 745.08 119.282C748.044 116.587 750.999 113.084 750.999 108.954C750.999 104.825 749.174 99.6438 738.44 96.6532C731.348 94.6798 730.358 89.1074 718.538 89.1074Z" fill="#1F161E"/>
<path d="M714.879 121.256C714.166 122.273 710.534 126.541 714.366 128.262" stroke="#1F161E" stroke-miterlimit="10" stroke-linecap="round"/>
<path d="M722.04 133.252C723.187 133.252 724.952 131.827 725.882 130.549" stroke="#1F161E" stroke-miterlimit="10" stroke-linecap="round"/>
<path d="M745.984 128.419C748.759 128.419 751.008 126.169 751.008 123.394C751.008 120.619 748.759 118.369 745.984 118.369C743.21 118.369 740.961 120.619 740.961 123.394C740.961 126.169 743.21 128.419 745.984 128.419Z" fill="#BD917D"/>
<path d="M761.124 196.697C760.733 201.496 759.203 225.211 759.777 228.332C752.485 230.871 685.721 262.541 674.17 266.018" stroke="#1F161E" stroke-miterlimit="10" stroke-linecap="round"/>
<path d="M683.583 189.212C682.044 194.584 676.864 218.969 680.506 230.297" stroke="#1F161E" stroke-miterlimit="10" stroke-linecap="round"/>
<path d="M700.626 254.925C704.102 257.368 737.423 272.121 783.494 266.557" stroke="#1F161E" stroke-miterlimit="10" stroke-linecap="round"/>
<path d="M697.436 230.297C699.67 230.653 692.387 224.837 688.258 227.002C684.13 229.167 678.568 238.964 679.706 241.233C679.86 241.645 680.104 242.017 680.42 242.322C680.736 242.627 681.117 242.858 681.534 242.996C681.95 243.135 682.393 243.178 682.829 243.122C683.265 243.067 683.683 242.915 684.052 242.676C685.173 241.955 693.543 229.671 697.436 230.297Z" fill="#F8CDBA"/>
<path d="M765.156 535.583C766.347 536.453 776.907 543.598 776.994 548.102C777.081 552.605 767.155 567.531 765.156 567.957C763.157 568.383 761.732 566.697 761.732 563.68C761.732 560.664 765.504 555.378 765 553.031C764.496 550.684 759.62 546.389 757.117 546.311" fill="#1F161E"/>
<path d="M709.916 562.689C709.916 564.758 711.116 577.746 708.717 578.954C706.318 580.163 679.845 580.876 678.646 579.676C677.447 578.476 676.717 575.947 677.777 575.225C678.837 574.503 689.075 572.452 690.466 571.496C691.856 570.539 693.777 565.41 693.073 562.689" fill="#1F161E"/>
<path d="M190.672 466.262H22.6055V551.535H190.672V466.262Z" fill="#B37361"/>
<path d="M273.471 426.298C274.201 430.645 286.595 530.019 288.602 531.662C290.61 533.306 311.929 536.948 313.754 534.218C314.119 529.872 314.623 460.568 315.753 454.369" fill="#1F161E"/>
<path d="M33.6864 405.565C25.091 401.331 43.0118 485.257 90.1779 485.257C137.344 485.257 216.736 413.389 229.59 413.389C257.967 413.389 325.139 469.113 330.406 469.113C334.439 465.08 342.504 458.021 342.504 455.204C342.504 452.387 278.19 346.536 230.068 346.536C211.409 346.563 53.0934 415.153 33.6864 405.565Z" fill="#50B89D"/>
<path d="M60.2288 406.99C69.6585 404.852 81.3914 399.314 91.7771 393.655C63.5227 402.896 40.3698 408.868 33.6864 405.565C29.1324 403.322 32.0178 425.785 42.7251 447.423C40.787 443.242 38.0233 412.067 60.2288 406.99Z" fill="#1F161E"/>
<path d="M81.0178 259.759C88.4486 259.959 127.132 258.82 137.735 268.922C145.601 276.415 170.057 340.86 173.829 363.489C157.403 371.843 38.9272 428.585 2.25989 403.635C1.45163 384.248 5.21483 307.181 29.1933 266.766C37.9625 260.924 73.8738 259.576 81.0178 259.759Z" fill="#0073DA"/>
<path d="M96.0878 241.32H73.4912V265.609C73.4912 271.695 96.0878 271.643 96.0878 265.609V241.32Z" fill="#D3A18B"/>
<path d="M73.4912 255.986C73.4912 253.291 80.9568 246.519 85.5717 246.762C85.6847 243.763 75.0295 239.451 75.0295 239.451L73.4912 243.598V255.986Z" fill="#1F161E"/>
<path d="M119.754 241.32C120.261 238.969 120.517 236.571 120.518 234.165C120.518 216.24 106.517 201.704 89.2307 201.704C71.9443 201.704 57.9431 216.24 57.9431 234.165C57.9441 236.571 58.2005 238.969 58.7079 241.32H119.754Z" fill="#1F161E"/>
<path d="M111.506 219.439C107.673 218.856 103.849 215.84 101.181 213.866C85.9715 225.011 76.2289 225.159 75.1773 225.159C74.1257 225.159 69.841 231.314 67.8682 232.01L67.6943 231.905C68.2809 235.144 69.5344 238.225 71.3753 240.953C73.2162 243.681 75.6042 245.996 78.3877 247.751C81.1711 249.506 84.289 250.663 87.5435 251.148C90.7979 251.634 94.1176 251.436 97.2917 250.569C100.466 249.702 103.425 248.184 105.981 246.112C108.537 244.039 110.634 241.457 112.14 238.531C113.645 235.604 114.525 232.396 114.724 229.111C114.923 225.826 114.437 222.535 113.296 219.448C112.701 219.519 112.1 219.516 111.506 219.439V219.439Z" fill="#D3A18B"/>
<path d="M72.2833 205.747C77.3808 205.747 81.5132 201.613 81.5132 196.514C81.5132 191.415 77.3808 187.282 72.2833 187.282C67.1858 187.282 63.0535 191.415 63.0535 196.514C63.0535 201.613 67.1858 205.747 72.2833 205.747Z" fill="#1F161E"/>
<path d="M76.394 224.664C75.3966 224.711 74.4557 225.14 73.7665 225.863C73.0774 226.586 72.6929 227.546 72.6929 228.545C72.6929 229.544 73.0774 230.504 73.7665 231.227C74.4557 231.95 75.3966 232.38 76.394 232.427" stroke="#1F161E" stroke-miterlimit="10" stroke-linecap="round"/>
<path d="M105.978 225.159C107.117 226.68 110.046 229.349 105.978 232.175" stroke="#1F161E" stroke-miterlimit="10" stroke-linecap="round"/>
<path d="M93.6458 234.209C93.6458 235.348 94.1325 238.069 96.5746 238.773" stroke="#1F161E" stroke-miterlimit="10" stroke-linecap="round"/>
<path d="M136.918 326.933L161.071 320.717C163.391 324.664 174.689 363.445 174.689 363.445L137.405 379.163C137.892 371.817 139.36 338.173 136.918 326.933Z" fill="#F8CDBA"/>
<path d="M52.233 320.856C52.233 323.777 49.7734 334.896 48.322 340.121" stroke="#1F161E" stroke-miterlimit="10" stroke-linecap="round"/>
<path d="M136.918 326.933C136.336 322.334 132.929 296.419 127.132 282.779" stroke="#1F161E" stroke-miterlimit="10" stroke-linecap="round"/>
<path d="M136.918 326.933L161.071 320.717C163.391 324.664 174.689 363.445 174.689 363.445L137.405 379.163C137.892 371.817 139.36 338.173 136.918 326.933Z" fill="#D3A18B"/>
<path d="M331.127 467.062C331.666 467.931 338.862 476.764 341.409 476.859C343.955 476.955 359.417 466.479 358.739 464.228C358.061 461.976 348.362 463.445 346.693 462.654C345.024 461.863 341.296 458.142 340.688 456.491" fill="#1F161E"/>
<path d="M293.104 532.584C292.922 533.549 291.94 544.929 293.704 546.772C295.468 548.615 313.867 551.814 314.936 549.719C316.005 547.624 307.983 541.947 307.366 540.225C306.749 538.504 306.619 533.271 307.366 531.636" fill="#1F161E"/>
<path d="M264.259 365.879H182.416L201.901 314.232H283.744L264.259 365.879Z" fill="#969696"/>
<path d="M196.061 363.932H114.217V365.879H196.061V363.932Z" fill="#969696"/>
<path d="M48.3221 340.121C46.749 345.997 39.1096 371.208 42.221 375.555C45.3324 379.902 123.256 370.052 144.106 363.558C149.416 361.819 153.353 357.264 155.708 356.673C158.732 356.161 161.839 356.785 164.432 358.425C167.024 360.065 168.919 362.605 169.753 365.558C161.427 369.591 41.2129 430.984 2.25979 403.661C-5.10149 398.384 7.81334 334.053 8.40433 330.81C14.9834 331.601 48.3221 340.121 48.3221 340.121Z" fill="#D3A18B"/>
<path d="M138.031 365.123C140.377 364.567 142.428 364.019 144.114 363.497C149.425 361.759 153.362 357.203 155.717 356.612C158.741 356.1 161.848 356.724 164.44 358.364C167.033 360.004 168.928 362.544 169.762 365.497" stroke="#1F161E" stroke-miterlimit="10" stroke-linecap="round"/>
<rect x="559.102" y="279.284" width="88.4601" height="79.0588" rx="4" fill="#0073DA"/>
<path d="M572.849 319.889V317.951L588.452 310.004V313.105L576.483 318.872L576.58 318.678V319.162L576.483 318.968L588.452 324.735V327.836L572.849 319.889ZM612.877 302.639L604.881 332.342H602.265L610.26 302.639H612.877ZM588.452 360.889L572.849 368.836V365.735L584.818 359.968L584.721 360.162V359.678L584.818 359.872L572.849 354.105V351.004L588.452 358.951V360.889Z" fill="white"/>
</g>
<defs>
<clipPath id="clip0_1135_1272">
<rect width="797" height="672" fill="white"/>
</clipPath>
</defs>
</svg>
