<svg width="187" height="166" viewBox="0 0 187 166" fill="none" xmlns="http://www.w3.org/2000/svg">
<path fill-rule="evenodd" clip-rule="evenodd" d="M139.941 166C193.788 166 237.441 122.348 237.441 68.5C237.441 14.6522 193.788 -29 139.941 -29C86.0928 -29 42.4406 14.6522 42.4406 68.5C42.4406 69.1734 42.4474 69.8452 42.461 70.5154C42.0772 70.0171 41.5277 69.6303 40.8394 69.4524L4.38802 60.0283C2.15214 59.4502 0.128938 61.5093 0.74626 63.7347L10.8104 100.015C11.4277 102.24 14.2226 102.962 15.8411 101.315L42.2283 74.4595C42.3676 74.3177 42.4892 74.1675 42.5937 74.0111C45.4512 125.295 87.9423 166 139.941 166ZM6.4903 65.7362L36.234 73.4261L14.7025 95.3399L6.4903 65.7362Z" fill="#0073DA"/>
</svg>
